<svg id="Capa_1" enable-background="new 0 0 511.992 511.992" height="512" viewBox="0 0 511.992 511.992" width="512" xmlns="http://www.w3.org/2000/svg"><g><path d="m424.233 326.04.021-.012c17.979-9.988 24.108-32.884 13.523-50.519-6.916-11.522-6.916-25.919 0-37.441 10.585-17.634 4.456-40.53-13.523-50.519l-.021-.012c-11.728-6.515-18.917-18.957-18.706-32.371l.001-.096c.121-7.677-2.142-14.82-6.096-20.742 58.134 29.851 98.844 88.076 104.911 155.279 1.916 21.217-14.643 39.556-35.946 39.556h-48.857c1.471-1.145 3.031-2.199 4.693-3.123z" fill="#ffd600"/><path d="m437.777 275.51c10.585 17.634 4.456 40.53-13.523 50.519l-.021.012c-1.662.923-3.221 1.977-4.693 3.125h-62.006c22.515 0 40.035-19.374 38.017-41.798-7.4-82.236-63.834-151.918-141.728-176.944-18.038-5.798-37.155-9.156-56.978-9.717.26-.426.528-.845.772-1.284l.011-.021c9.988-17.979 32.884-27.108 50.519-16.523 11.522 6.916 27.919 6.916 39.441 0 17.634-10.585 38.53-1.456 48.519 16.523l.012.021c6.515 11.728 18.957 18.917 32.371 18.706l.096-.001c20.536-.323 37.268 16.408 36.944 36.944l-.001.096c-.211 13.414 6.978 25.856 18.706 32.371l.021.012c17.979 9.988 24.108 32.884 13.523 50.519-6.918 11.521-6.918 25.917-.002 37.44z" fill="#ff63ed"/><g><path d="m468.398 336.665h-48.858c-4.142 0-7.5-3.358-7.5-7.5s3.358-7.5 7.5-7.5h48.858c8.107 0 15.583-3.295 21.051-9.279 5.449-5.963 8.155-14.019 7.426-22.103-2.837-31.428-13.785-61.89-31.657-88.095-17.613-25.823-41.545-46.981-69.21-61.187-3.685-1.892-3.83-8.573-3.246-10.098 1.48-3.869 6.413-5.14 10.098-3.246 29.884 15.345 55.733 38.195 74.751 66.079 19.31 28.312 31.137 61.23 34.205 95.198 1.107 12.269-3.009 24.505-11.292 33.57-8.225 9-19.934 14.161-32.126 14.161z" fill="#f95116"/></g><g><path d="m419.54 336.665h-58.417c-4.142 0-7.5-3.358-7.5-7.5s3.358-7.5 7.5-7.5h55.963c1.154-.797 2.326-1.526 3.503-2.181 6.925-3.847 11.851-10.16 13.893-17.787 2.042-7.628.928-15.558-3.136-22.328-8.36-13.928-8.36-31.232 0-45.161 4.064-6.771 5.178-14.7 3.136-22.328-2.038-7.614-6.951-13.918-13.834-17.755-.021-.011-.042-.022-.058-.031-14.172-7.874-22.817-22.835-22.562-39.045.125-7.98-2.876-15.393-8.452-20.969s-13.013-8.578-20.873-8.454c-16.269.263-31.233-8.368-39.114-22.512-.014-.025-.028-.05-.04-.07-4.575-8.235-11.784-14.186-19.777-16.326-6.337-1.697-12.675-.801-18.325 2.591-13.884 8.333-33.277 8.333-47.161 0-7.353-4.414-14.734-3.779-19.629-2.467-8.438 2.259-16.092 8.315-20.473 16.202-.015.026-.041.073-.056.1-2.055 3.596-6.637 4.846-10.233 2.791s-4.846-6.636-2.791-10.233l.012-.021c6.365-11.459 17.193-19.991 29.662-23.329 10.883-2.914 21.974-1.458 31.228 4.096 9.191 5.517 22.532 5.518 31.722 0 9.219-5.533 19.565-6.993 29.924-4.22 11.883 3.181 22.445 11.74 28.986 23.486.014.023.027.047.037.066 5.181 9.327 15.029 15.028 25.697 14.849 12.055-.194 23.339 4.371 31.812 12.844 8.472 8.473 13.034 19.736 12.845 31.716-.169 10.751 5.506 20.586 14.813 25.773.02.011.04.021.055.03 10.488 5.827 17.973 15.418 21.076 27.009s1.411 23.639-4.764 33.926c-5.502 9.167-5.502 20.555 0 29.721 6.175 10.288 7.867 22.336 4.764 33.926s-10.587 21.182-21.076 27.009c-1.265.703-2.518 1.538-3.745 2.495-1.318 1.029-2.941 1.587-4.612 1.587z" fill="#e207b9"/></g><path d="m190.92 100.613c21.943 0 43.074 3.437 62.902 9.81 77.894 25.026 134.328 94.708 141.728 176.944 2.018 22.424-15.502 41.798-38.017 41.798h-223.545-88.283c-22.255 0-39.993-18.973-38.066-41.144 9.012-103.736 74.673-187.408 183.281-187.408z" fill="#ffd600"/><g><path d="m294.374 329.165v80.733c0 13.108-10.626 23.734-23.734 23.734h-39.617c-13.108 0-23.734-10.626-23.734-23.734s10.626-23.734 23.734-23.734h15.883v-56.999z" fill="#17d9c3"/></g><g><path d="m183.915 329.165v80.733c0 13.108-10.626 23.734-23.734 23.734h-39.617c-13.108 0-23.734-10.626-23.734-23.734s10.626-23.734 23.734-23.734h15.883v-56.999z" fill="#17d9c3"/></g><g fill="#f90"><circle cx="162.616" cy="165.88" r="22.726"/><circle cx="276.724" cy="187.744" r="17.862"/><circle cx="74.228" cy="259.901" r="19.939"/></g><g><g><path d="m270.64 441.131h-39.617c-17.223 0-31.234-14.011-31.234-31.233 0-17.223 14.011-31.234 31.234-31.234h8.383v-46.499c0-4.142 3.358-7.5 7.5-7.5s7.5 3.358 7.5 7.5v53.999c0 4.142-3.358 7.5-7.5 7.5h-15.883c-8.951 0-16.234 7.283-16.234 16.234s7.283 16.233 16.234 16.233h39.617c8.951 0 16.234-7.282 16.234-16.233v-77.733c0-4.142 3.358-7.5 7.5-7.5s7.5 3.358 7.5 7.5v77.733c0 17.222-14.012 31.233-31.234 31.233z" fill="#007ea8"/></g></g><g><g><path d="m160.181 441.131h-39.617c-17.222 0-31.233-14.011-31.233-31.233 0-17.223 14.011-31.234 31.233-31.234h8.383v-45.499c0-4.142 3.358-7.5 7.5-7.5s7.5 3.358 7.5 7.5v52.999c0 4.142-3.358 7.5-7.5 7.5h-15.883c-8.951 0-16.233 7.283-16.233 16.234s7.282 16.233 16.233 16.233h39.617c8.951 0 16.233-7.282 16.233-16.233v-76.733c0-4.142 3.358-7.5 7.5-7.5s7.5 3.358 7.5 7.5v76.733c.001 17.222-14.011 31.233-31.233 31.233z" fill="#007ea8"/></g></g><path d="m136.448 329.165h47.467v31.715h-47.467z" fill="#007ea8"/><path d="m246.906 329.165h47.467v31.715h-47.467z" fill="#007ea8"/><g><path d="m357.533 336.665h-311.828c-12.813 0-25.129-5.417-33.79-14.863-8.557-9.333-12.839-21.882-11.749-34.431 4.689-53.979 24.663-102.643 56.24-137.029 34.382-37.44 80.896-57.23 134.513-57.23 22.267 0 44.202 3.422 65.197 10.17 39.718 12.761 74.592 36.78 100.851 69.46 26.373 32.823 42.297 72.227 46.052 113.951 1.156 12.841-3.156 25.647-11.83 35.137-8.616 9.428-20.883 14.835-33.656 14.835zm-166.613-228.553c-49.305 0-91.999 18.111-123.465 52.376-29.35 31.96-47.939 77.483-52.344 128.181-.738 8.495 2.054 16.661 7.861 22.995 5.827 6.355 14.113 10 22.733 10h311.828c8.697 0 16.718-3.535 22.585-9.954 5.839-6.388 8.741-15.016 7.962-23.672-3.489-38.771-18.291-75.39-42.806-105.9-24.415-30.385-56.832-52.715-93.747-64.575-19.509-6.271-39.901-9.451-60.607-9.451z" fill="#f95116"/></g><circle cx="140.345" cy="250.981" fill="#f95116" r="12.997"/><g><path d="m229.124 293.512h-55.043c-4.142 0-7.5-3.358-7.5-7.5s3.358-7.5 7.5-7.5h55.043c4.142 0 7.5 3.358 7.5 7.5s-3.358 7.5-7.5 7.5z" fill="#f95116"/></g><circle cx="262.859" cy="250.981" fill="#f95116" r="12.997"/><g><path d="m162.616 196.106c-16.667 0-30.227-13.56-30.227-30.227s13.56-30.227 30.227-30.227 30.227 13.56 30.227 30.227-13.56 30.227-30.227 30.227zm0-45.453c-8.396 0-15.227 6.831-15.227 15.227s6.831 15.227 15.227 15.227 15.227-6.831 15.227-15.227-6.831-15.227-15.227-15.227z" fill="#f95116"/></g><g><path d="m276.724 213.106c-13.984 0-25.362-11.377-25.362-25.362s11.377-25.362 25.362-25.362 25.362 11.377 25.362 25.362-11.377 25.362-25.362 25.362zm0-35.724c-5.713 0-10.362 4.648-10.362 10.362s4.648 10.362 10.362 10.362 10.362-4.648 10.362-10.362-4.648-10.362-10.362-10.362z" fill="#f95116"/></g><g><path d="m74.228 287.34c-15.13 0-27.439-12.309-27.439-27.439s12.309-27.439 27.439-27.439 27.439 12.309 27.439 27.439c.001 15.13-12.308 27.439-27.439 27.439zm0-39.878c-6.859 0-12.439 5.58-12.439 12.439s5.58 12.439 12.439 12.439 12.439-5.58 12.439-12.439c.001-6.859-5.579-12.439-12.439-12.439z" fill="#f95116"/></g></g></svg>